<svg xmlns="http://www.w3.org/2000/svg" viewBox="0 0 32 32"><defs><style>.cls-1{fill:#f880b0;}.cls-2{fill:#fff;}</style></defs><g id="Layer_2" data-name="Layer 2"><g id="Layer_1-2" data-name="Layer 1"><circle class="cls-1" cx="16" cy="16" r="16"/><path class="cls-2" d="M28.33,11.54a13.27,13.27,0,0,0-7.57,0,19.67,19.67,0,0,1-3,1.07A11.94,11.94,0,0,0,16,12.45a11.94,11.94,0,0,0-1.75.15,19.67,19.67,0,0,1-3-1.07,13.27,13.27,0,0,0-7.57,0c-1.94.63-1,.7-3.61,1.08v2.43c1.34.29,1.35,2.83,1.7,4.12a7.45,7.45,0,0,0,3.51,4c1.06.57,4.45.88,6-.34a8.57,8.57,0,0,0,3.12-5.29c.32-1.69-.1-2.42,1.59-2.42s1.27.73,1.59,2.42a8.57,8.57,0,0,0,3.12,5.29c1.57,1.22,5,.91,6,.34a7.45,7.45,0,0,0,3.51-4c.35-1.29.36-3.83,1.7-4.12V12.62C29.37,12.24,30.27,12.17,28.33,11.54ZM12.44,19.17c-.89,2.06-1.86,3.34-5.29,3.11-2.62-.17-4.27-2.73-4.41-4.78s-.28-4.8,4.41-4.92c1.91-.06,4.31.64,5.27,1.67C13.05,14.92,13.34,17.09,12.44,19.17ZM29.26,17.5c-.14,2.05-1.79,4.61-4.41,4.78-3.43.23-4.4-1.05-5.29-3.11s-.61-4.25,0-4.92c1-1,3.36-1.73,5.27-1.67C29.54,12.7,29.41,15.44,29.26,17.5Z"/></g></g></svg>