<svg xmlns="http://www.w3.org/2000/svg" viewBox="0 0 23.63 35.01">
<circle cx="8.6" cy="8.5" r="1.48"/>
<circle cx="8.6" cy="12.01" r="1.48"/>
<circle cx="8.6" cy="15.53" r="1.48"/>
<circle cx="8.6" cy="1.48" r="1.48"/>
<circle cx="8.6" cy="4.99" r="1.48"/>
<path d="M16.13,30.48c1.05-.17,2-.32,3.17-.52a6.65,6.65,0,0,1,1.54-.15,1.25,1.25,0,0,1,.54.15.93.93,0,0,1,.13,1.27,2.41,2.41,0,0,1-1.17.77c-2.56,1-5.36,1.16-7.94,2.07A13.24,13.24,0,0,1,9.29,35a7.56,7.56,0,0,1-3.14-.56,12.32,12.32,0,0,1-3.87-2.06A5.79,5.79,0,0,1,0,28.6a8.58,8.58,0,0,1,.73-4.06C1.62,22.58,3.2,21,3.92,19a7,7,0,0,1,.63-1.55,1.48,1.48,0,0,1,1.39-.74.78.78,0,0,1,.43.22.91.91,0,0,1,.19.38A6.88,6.88,0,0,1,6.17,21a3,3,0,0,0-.09.52,3.83,3.83,0,0,0,.08.68,4.93,4.93,0,0,1,0,1.58c0,.38-.12.86.21,1.07a.85.85,0,0,0,.44.11l1.39.11a1.64,1.64,0,0,0,1.18-.21,1.77,1.77,0,0,0,.34-.47l1-1.83A1.86,1.86,0,0,0,11,22a7.07,7.07,0,0,0,.08-1.78,8.86,8.86,0,0,1-.1-3.4,1.28,1.28,0,0,1,.42-.8,1.05,1.05,0,0,1,1.29.17,2.77,2.77,0,0,1,.64,1.25A18.19,18.19,0,0,1,14,21.57c0,.35.12.29.06.64a2.31,2.31,0,0,1-.3.75l-1.5,2.69c2.2-1.74,4.47-3.34,6.67-5.08a3.59,3.59,0,0,1,1.85-.93,1,1,0,0,1,.86.32,1,1,0,0,1,.13.64,3.78,3.78,0,0,1-1.49,2.31c-1.29,1.19-2.57,2.38-3.85,3.59,1.47-.49,3.06-.9,4.55-1.32a7.37,7.37,0,0,1,1.85-.35,1,1,0,0,1,.4.05.79.79,0,0,1,.43.54,1.38,1.38,0,0,1-.35,1.16,3.79,3.79,0,0,1-1,.75C20.24,28.49,18.21,29.48,16.13,30.48Z"/>
</svg>