<svg xmlns="http://www.w3.org/2000/svg" viewBox="0 0 23.63 27.99">
<circle cx="8.6" cy="1.48" r="1.48"/>
<circle cx="8.6" cy="4.99" r="1.48"/>
<circle cx="8.6" cy="8.5" r="1.48"/>
<path d="M16.13,23.46c1.05-.17,2-.32,3.17-.52a6.15,6.15,0,0,1,1.54-.15,1.12,1.12,0,0,1,.54.15.93.93,0,0,1,.13,1.27,2.41,2.41,0,0,1-1.17.77C17.78,26,15,26.14,12.4,27A12.78,12.78,0,0,1,9.29,28a7.72,7.72,0,0,1-3.14-.55,12.15,12.15,0,0,1-3.87-2.07A5.79,5.79,0,0,1,0,21.58a8.62,8.62,0,0,1,.73-4.07C1.62,15.56,3.2,14,3.92,12a6.92,6.92,0,0,1,.63-1.54,1.45,1.45,0,0,1,1.39-.74.72.72,0,0,1,.43.22.85.85,0,0,1,.19.38A6.88,6.88,0,0,1,6.17,14a3,3,0,0,0-.09.51,4.06,4.06,0,0,0,.08.69,4.93,4.93,0,0,1,0,1.58c0,.38-.12.86.21,1.07a1,1,0,0,0,.44.11l1.39.11a1.59,1.59,0,0,0,1.18-.22,1.57,1.57,0,0,0,.34-.46l1-1.83A2,2,0,0,0,11,15a7.09,7.09,0,0,0,.08-1.78A8.91,8.91,0,0,1,11,9.77,1.26,1.26,0,0,1,11.39,9a1.05,1.05,0,0,1,1.29.17,2.72,2.72,0,0,1,.64,1.25A18.11,18.11,0,0,1,14,14.54c0,.36.12.3.06.65a2.18,2.18,0,0,1-.3.74l-1.5,2.69c2.2-1.73,4.47-3.33,6.67-5.07a3.59,3.59,0,0,1,1.85-.93.94.94,0,0,1,.86.32,1,1,0,0,1,.13.63,3.83,3.83,0,0,1-1.49,2.32c-1.29,1.19-2.57,2.38-3.85,3.59,1.47-.49,3.06-.9,4.55-1.32a7,7,0,0,1,1.85-.35,1,1,0,0,1,.4.05.79.79,0,0,1,.43.54,1.39,1.39,0,0,1-.35,1.16,3.79,3.79,0,0,1-1,.75C20.24,21.46,18.21,22.46,16.13,23.46Z"/>
</svg>