<svg xmlns="http://www.w3.org/2000/svg" viewBox="0 0 48 48"><defs><style>.cls-1{fill:#f880b0;}.cls-2{fill:#fff;}</style></defs><g id="Layer_2" data-name="Layer 2"><g id="Layer_1-2" data-name="Layer 1"><circle class="cls-1" cx="24" cy="24" r="24"/><path class="cls-2" d="M42.5,17.31a20,20,0,0,0-11.36,0c-2,.7-4,1.7-4.52,1.61a15.71,15.71,0,0,0-5.24,0c-.51.09-2.54-.91-4.52-1.61a20,20,0,0,0-11.36,0c-2.91.94-1.56,1.05-5.41,1.62v3.65c2,.44,2,4.25,2.56,6.18.79,2.87,3.65,5.17,5.25,6s6.69,1.32,9-.51a12.86,12.86,0,0,0,4.67-7.93c.49-2.54-.15-3.64,2.39-3.64s1.9,1.1,2.38,3.64a12.92,12.92,0,0,0,4.68,7.93c2.35,1.83,7.44,1.36,9,.51s4.46-3.14,5.25-6c.53-1.93.55-5.74,2.56-6.18V18.93C44.06,18.36,45.41,18.25,42.5,17.31ZM18.66,28.75c-1.34,3.09-2.79,5-7.93,4.67-3.94-.26-6.41-4.1-6.63-7.18s-.4-7.19,6.63-7.38c2.85-.07,6.46,1,7.9,2.51C19.58,22.38,20,25.64,18.66,28.75ZM43.9,26.24c-.22,3.08-2.69,6.92-6.63,7.18-5.14.35-6.59-1.58-7.94-4.67s-.91-6.37,0-7.38c1.44-1.53,5.05-2.58,7.9-2.51C44.3,19.05,44.12,23.16,43.9,26.24Z"/></g></g></svg>